<svg id="레이어_1" data-name="레이어 1" xmlns="http://www.w3.org/2000/svg" viewBox="0 0 349.15 289.5"><defs><style>.cls-1{fill:#fff;}</style></defs><rect class="cls-1" width="349.15" height="289.5" rx="12"/><path d="M498.29,324a27.41,27.41,0,1,1,27.41-27.41A27.44,27.44,0,0,1,498.29,324Z" transform="translate(-231.5 -217)"/><path d="M498.29,269.72a26.91,26.91,0,1,1-26.91,26.91,26.94,26.94,0,0,1,26.91-26.91m0-1a27.91,27.91,0,1,0,27.91,27.91,27.9,27.9,0,0,0-27.91-27.91Z" transform="translate(-231.5 -217)"/><rect x="389.61" y="349.94" width="116.11" height="47.71" transform="translate(-341.67 326.93) rotate(-56.82)"/><path d="M459.62,312.84l39.09,25.56-63,96.34-39.1-25.56,63-96.34m-.29-1.39-64.09,98L436,436.13l64.08-98-40.76-26.66Z" transform="translate(-231.5 -217)"/><path d="M346.6,495.52a11.55,11.55,0,0,1-8.81-19l68.84-81.33a11.54,11.54,0,0,1,17.61,14.91l-68.83,81.33A11.52,11.52,0,0,1,346.6,495.52Z" transform="translate(-231.5 -217)"/><path d="M415.44,391.61a11,11,0,0,1,8.42,18.17L355,491.11a11,11,0,1,1-16.85-14.27L407,395.52a11,11,0,0,1,8.43-3.91m0-1a12,12,0,0,0-9.2,4.26L337.41,476.2a12,12,0,1,0,18.38,15.55l68.83-81.32a12,12,0,0,0-1.41-17h0a12,12,0,0,0-7.77-2.85Z" transform="translate(-231.5 -217)"/><path d="M479.62,459a12.29,12.29,0,0,1-6.16-1.66L431,432.79a12.36,12.36,0,1,1,12.36-21.41l42.47,24.51a12.36,12.36,0,0,1-6.2,23.07Z" transform="translate(-231.5 -217)"/><path d="M437.19,410.22h0a11.85,11.85,0,0,1,5.91,1.59l42.47,24.52a11.87,11.87,0,0,1,4.34,16.2,11.86,11.86,0,0,1-16.2,4.34l-42.47-24.52a11.87,11.87,0,0,1-4.34-16.2,11.91,11.91,0,0,1,10.29-5.93m0-1A12.86,12.86,0,0,0,426,415.65h0a12.85,12.85,0,0,0,4.7,17.57l42.47,24.52a12.86,12.86,0,0,0,12.86-22.28L443.6,411a12.76,12.76,0,0,0-6.41-1.73Z" transform="translate(-231.5 -217)"/><path d="M423.68,498a10.47,10.47,0,0,1-10.31-12.36,10.36,10.36,0,0,1,4.35-6.73l56.74-39.17a10.35,10.35,0,0,1,5.94-1.86,10.48,10.48,0,0,1,6,19.1l-56.74,39.17A10.43,10.43,0,0,1,423.68,498Z" transform="translate(-231.5 -217)"/><path d="M480.4,438.37h0a10,10,0,0,1,5.67,18.19l-56.73,39.17A10,10,0,0,1,418,479.31l56.74-39.17a9.88,9.88,0,0,1,5.66-1.77m0-1a10.89,10.89,0,0,0-6.23,1.95l-56.74,39.17a11,11,0,0,0-2.79,15.26h0a11,11,0,0,0,15.26,2.8l56.74-39.17a11,11,0,0,0,2.8-15.27h0a11,11,0,0,0-9-4.74Z" transform="translate(-231.5 -217)"/><path d="M379.55,332.34a10.48,10.48,0,0,1,0-20.95h75.86a10.48,10.48,0,1,1,0,20.95Z" transform="translate(-231.5 -217)"/><path d="M455.41,311.89a10,10,0,1,1,0,19.95H379.55a10,10,0,0,1,0-19.95h75.86m0-1H379.55a11,11,0,0,0-11,11h0a11,11,0,0,0,11,11h75.86a11,11,0,0,0,11-11h0a11,11,0,0,0-11-11Z" transform="translate(-231.5 -217)"/><path d="M509.35,360.8A10.48,10.48,0,0,1,508,339.93l43.94-5.6a10.05,10.05,0,0,1,1.34-.09,10.48,10.48,0,0,1,1.31,20.87l-43.94,5.6A9.94,9.94,0,0,1,509.35,360.8Z" transform="translate(-231.5 -217)"/><path d="M553.32,333.74v1a10,10,0,0,1,1.25,19.87l-43.94,5.61a10.86,10.86,0,0,1-1.28.08,10,10,0,0,1-1.24-19.87L552,334.82a11.13,11.13,0,0,1,1.28-.08v-1m0,0a11.09,11.09,0,0,0-1.4.09L508,339.44a11,11,0,0,0-9.5,12.27h0a11,11,0,0,0,10.87,9.59,11.12,11.12,0,0,0,1.41-.09l43.94-5.61a11,11,0,0,0,9.49-12.27h0a11,11,0,0,0-10.87-9.59Z" transform="translate(-231.5 -217)"/><path d="M506.84,360.2a10.1,10.1,0,0,1-2.26-.25l-15.48-3.4a10.47,10.47,0,0,1-8-12.48,10.53,10.53,0,0,1,10.22-8.23,10.23,10.23,0,0,1,2.26.25l15.48,3.4a10.48,10.48,0,0,1-2.24,20.71Z" transform="translate(-231.5 -217)"/><path d="M491.34,336.34h0a9.77,9.77,0,0,1,2.15.24L509,340a10,10,0,0,1-2.13,19.72,10.4,10.4,0,0,1-2.15-.23l-15.49-3.41a10,10,0,0,1,2.14-19.72m0-1A11,11,0,0,0,480.63,344h0A11,11,0,0,0,489,357l15.48,3.4a10.75,10.75,0,0,0,2.37.26,11,11,0,0,0,10.71-8.62h0A11,11,0,0,0,509.19,339L493.7,335.6a10.6,10.6,0,0,0-2.36-.26Z" transform="translate(-231.5 -217)"/><path d="M553.56,351.83a10.49,10.49,0,0,1-10.47-10.47V280.24a10.48,10.48,0,1,1,20.95,0v61.12A10.49,10.49,0,0,1,553.56,351.83Z" transform="translate(-231.5 -217)"/><path d="M553.56,270.26a10,10,0,0,1,10,10v61.12a10,10,0,0,1-19.95,0V280.24a10,10,0,0,1,10-10m0-1h0a11,11,0,0,0-11,11v61.12a11,11,0,0,0,11,11h0a11,11,0,0,0,11-11V280.24a11,11,0,0,0-11-11Z" transform="translate(-231.5 -217)"/><path d="M252,476.72a1.14,1.14,0,1,1,0-2.28h77.17a1.14,1.14,0,1,1,0,2.28Z" transform="translate(-231.5 -217)"/><path d="M329.19,474.94a.64.64,0,0,1,0,1.28H252a.64.64,0,1,1,0-1.28h77.17m0-1H252a1.64,1.64,0,1,0,0,3.28h77.17a1.64,1.64,0,0,0,0-3.28Z" transform="translate(-231.5 -217)"/><path d="M296.9,392.44a1.14,1.14,0,0,1,0-2.28h77.16a1.14,1.14,0,0,1,0,2.28Z" transform="translate(-231.5 -217)"/><path d="M374.06,390.66a.64.64,0,0,1,.64.64.64.64,0,0,1-.64.64H296.9a.64.64,0,0,1,0-1.28h77.16m0-1H296.9a1.64,1.64,0,0,0,0,3.28h77.16a1.64,1.64,0,0,0,0-3.28Z" transform="translate(-231.5 -217)"/><path d="M313.32,367.27a1.14,1.14,0,1,1,0-2.28h91.39a1.14,1.14,0,1,1,0,2.28Z" transform="translate(-231.5 -217)"/><path d="M404.71,365.49a.64.64,0,0,1,.64.64.64.64,0,0,1-.64.64H313.32a.64.64,0,1,1,0-1.28h91.39m0-1H313.32a1.64,1.64,0,1,0,0,3.28h91.39a1.64,1.64,0,1,0,0-3.28Z" transform="translate(-231.5 -217)"/><path d="M237.32,485a1.22,1.22,0,0,1,0-2.44h80.84a1.22,1.22,0,0,1,0,2.44Z" transform="translate(-231.5 -217)"/><path d="M318.16,483.07a.72.72,0,1,1,0,1.44H237.32a.72.72,0,0,1,0-1.44h80.84m0-1H237.32a1.72,1.72,0,0,0,0,3.44h80.84a1.72,1.72,0,0,0,0-3.44Z" transform="translate(-231.5 -217)"/><path d="M355.45,373.22a1.15,1.15,0,0,1,0-2.29H396a1.15,1.15,0,1,1,0,2.29Z" transform="translate(-231.5 -217)"/><path d="M396,371.43a.65.65,0,1,1,0,1.29H355.45a.65.65,0,0,1,0-1.29H396m0-1H355.45a1.65,1.65,0,0,0,0,3.29H396a1.65,1.65,0,1,0,0-3.29Z" transform="translate(-231.5 -217)"/></svg>